<?xml version="1.0" standalone="no"?>
<!DOCTYPE svg PUBLIC "-//W3C//DTD SVG 20010904//EN"
 "http://www.w3.org/TR/2001/REC-SVG-20010904/DTD/svg10.dtd">
<svg version="1.0" xmlns="http://www.w3.org/2000/svg"
 width="600.000000pt" height="600.000000pt" viewBox="0 0 600.000000 600.000000"
 preserveAspectRatio="xMidYMid meet">
<metadata>
Created by potrace 1.16, written by Peter Selinger 2001-2019
</metadata>
<g transform="translate(0.000000,600.000000) scale(0.100000,-0.100000)"
fill="#000000" stroke="none">
<path d="M1100 5303 c0 -5 19 -33 42 -63 22 -30 128 -170 235 -311 l193 -255
0 -86 0 -86 -56 -49 c-85 -73 -237 -254 -326 -388 -168 -252 -277 -527 -335
-840 -26 -144 -26 -566 0 -710 79 -429 249 -781 532 -1099 41 -46 75 -89 75
-95 0 -9 -270 -469 -336 -573 -13 -21 -24 -40 -24 -43 0 -3 737 -5 1638 -4
l1637 0 57 77 c32 42 168 221 304 397 135 176 266 346 291 378 24 33 42 61 39
64 -3 3 -65 4 -140 4 -74 -1 -137 2 -140 7 -3 5 15 40 40 78 60 91 175 326
213 437 88 254 121 451 121 722 0 358 -64 639 -215 950 -258 530 -713 928
-1275 1114 -112 37 -122 40 -250 65 -178 35 -359 50 -511 42 l-129 -6 0 140 0
140 -840 0 c-462 0 -840 -3 -840 -7z m1508 -1133 c-2 -883 -3 -1041 -7 -1162
0 -21 -6 -38 -12 -38 -5 0 -9 8 -8 18 3 31 -1 43 -12 36 -6 -3 -8 -17 -5 -29
3 -13 2 -35 -4 -49 -8 -23 -7 -26 15 -32 19 -5 25 -13 25 -35 0 -18 -5 -29
-13 -29 -8 0 -19 -11 -25 -25 -15 -32 -15 -38 -2 -30 6 3 10 2 10 -4 0 -5 -6
-11 -12 -14 -10 -3 -10 -7 0 -20 8 -9 10 -22 6 -29 -13 -21 -15 -219 -3 -234
6 -7 7 -18 3 -25 -4 -7 -8 -81 -9 -165 -1 -118 2 -154 12 -158 9 -4 13 7 13
39 0 25 5 45 10 45 6 0 10 -65 10 -175 0 -100 -4 -175 -9 -175 -11 0 -31 88
-24 105 2 7 0 16 -5 19 -12 7 -21 -78 -17 -149 5 -92 7 -111 12 -92 2 9 9 17
14 17 5 0 9 17 9 37 0 24 3 34 10 27 5 -5 12 -88 16 -184 3 -96 7 -181 9 -187
4 -10 225 -13 1065 -13 717 0 1060 -3 1060 -10 0 -6 -12 -15 -27 -21 -135 -49
-175 -74 -246 -152 -40 -44 -100 -118 -135 -166 -35 -47 -75 -100 -90 -118
l-27 -32 -975 0 c-536 0 -1028 0 -1092 -1 -66 -1 -126 3 -137 9 -13 7 -22 8
-26 1 -4 -6 -81 -10 -199 -10 l-192 0 -83 -40 c-119 -58 -122 -55 -63 42 21
35 50 83 64 108 66 118 211 366 219 376 5 6 12 52 16 103 5 74 9 91 20 86 8
-3 19 -5 24 -5 5 0 9 -7 9 -15 0 -18 29 -20 36 -2 2 7 5 205 7 440 1 276 6
427 12 427 6 0 11 -17 12 -38 3 -63 13 -514 12 -571 0 -36 5 -59 16 -71 13
-15 14 -23 5 -39 -10 -19 -7 -25 13 -22 4 0 7 -3 7 -8 0 -5 9 -11 21 -14 12
-3 18 -10 14 -16 -4 -8 -15 -6 -35 4 -18 9 -31 11 -35 5 -8 -14 3 -30 21 -30
8 0 14 -9 14 -20 0 -18 3 -19 20 -10 21 11 21 11 36 -39 3 -10 -3 -12 -23 -7
-21 5 -24 4 -13 -4 8 -5 25 -10 38 -10 13 0 22 -6 22 -16 0 -11 -6 -13 -19 -9
-11 3 -22 1 -25 -4 -4 -5 3 -13 15 -16 22 -7 39 7 39 34 0 8 3 11 8 7 4 -4 7
-13 7 -19 0 -6 11 -14 25 -17 l24 -6 -22 -22 c-23 -23 -29 -42 -12 -42 6 0 10
6 10 13 0 7 9 21 21 30 20 18 20 19 3 38 -9 10 -14 22 -11 25 3 4 2 15 -3 25
-7 12 -6 19 3 22 8 3 7 10 -7 26 -20 22 -20 21 21 21 4 0 8 -8 8 -17 0 -21 23
-29 31 -10 5 14 -8 35 -44 73 -11 11 -11 18 -3 28 8 10 7 16 -4 26 -29 24 -18
42 20 34 27 -5 36 -3 41 10 7 17 34 22 34 6 0 -5 -4 -10 -9 -10 -5 0 -11 -9
-14 -20 -3 -11 -12 -20 -21 -20 -9 0 -16 -6 -16 -14 0 -8 -6 -16 -12 -19 -23
-8 0 -19 42 -21 38 -2 41 -1 38 23 -2 20 2 26 22 31 16 4 25 13 25 25 0 12 -9
21 -25 25 -22 5 -23 7 -7 13 31 12 74 8 87 -8 11 -14 74 -19 94 -7 5 3 -1 12
-13 21 -25 19 -20 46 11 54 11 3 17 10 14 16 -4 5 2 12 13 16 16 5 18 11 12
33 -5 15 -4 38 1 52 8 23 10 23 19 7 6 -9 8 -21 5 -26 -3 -5 1 -15 10 -22 10
-8 13 -21 9 -36 -3 -13 -1 -23 5 -23 5 0 10 5 10 11 0 6 7 17 15 25 10 10 15
35 15 74 0 54 -1 58 -21 53 -16 -4 -20 -2 -17 8 3 8 9 14 14 14 21 1 34 18 33
43 -1 15 2 95 6 177 11 264 14 1067 4 1206 -6 74 -11 230 -11 347 -1 116 -3
212 -5 212 -2 0 -11 -4 -21 -9 -9 -5 -25 -12 -34 -15 -13 -4 -15 -11 -9 -33 6
-21 4 -32 -8 -43 -8 -8 -18 -14 -21 -13 -4 1 -4 -11 -2 -28 3 -18 10 -29 21
-30 13 0 14 -2 1 -6 -8 -3 -17 -10 -20 -14 -3 -5 -16 -6 -28 -2 -20 5 -29 32
-23 67 1 5 -19 6 -44 2 -41 -5 -48 -3 -52 14 -4 16 -11 19 -32 14 l-26 -7 26
29 c26 30 28 64 3 64 -8 0 -14 -9 -14 -20 0 -11 -7 -20 -15 -20 -8 0 -15 5
-15 10 0 16 -37 12 -55 -6 -21 -21 -33 -9 -17 16 7 11 10 20 8 20 -3 0 -39 -5
-81 -11 -61 -8 -81 -7 -104 4 -43 21 -50 1 -50 -157 0 -76 -3 -152 -5 -169 -3
-18 -8 -187 -11 -377 -4 -190 -10 -361 -15 -380 l-8 -35 -1 42 -1 41 -41 -20
c-22 -10 -44 -16 -47 -13 -4 4 -7 394 -7 868 l0 862 35 3 c63 5 63 7 -3 99
-134 189 -164 219 -278 273 -33 15 -54 30 -47 33 7 3 271 5 586 4 l573 -2 -3
-975z m660 655 c235 -35 419 -92 613 -191 402 -204 700 -506 892 -904 82 -171
167 -445 154 -496 -4 -16 -5 -15 -6 3 0 12 -5 25 -11 28 -5 3 -10 16 -10 29 0
12 -6 31 -14 41 -8 11 -12 25 -9 32 3 7 -2 20 -11 28 -9 9 -16 23 -16 30 0 8
-11 39 -25 69 -14 30 -25 61 -25 68 -1 35 -78 75 -95 49 -3 -6 -1 -11 4 -11 6
0 11 -10 11 -22 0 -15 -10 -3 -31 37 -17 32 -39 71 -50 86 -10 15 -19 34 -19
42 0 8 -7 17 -15 21 -8 3 -15 12 -15 19 0 8 -7 20 -15 27 -8 7 -15 21 -15 31
0 10 -6 22 -13 26 -7 4 -46 53 -87 107 -123 163 -337 363 -450 421 -19 10 -48
28 -65 41 -29 21 -142 80 -235 122 -125 56 -443 142 -525 142 -72 0 -185 22
-185 36 0 8 -5 14 -11 14 -6 0 -9 6 -6 14 8 21 -12 25 -108 23 -81 -2 -85 -1
-85 20 0 14 7 23 23 26 57 11 364 6 455 -8z m-1825 -766 c-6 -6 -9 -18 -6 -27
5 -11 3 -13 -7 -7 -8 5 -11 3 -8 -6 3 -8 -6 -34 -20 -59 -71 -126 -83 -165
-56 -185 18 -13 18 -14 2 -15 -10 0 -18 5 -18 10 0 6 -4 10 -10 10 -5 0 -10
-6 -10 -12 0 -7 -6 -25 -13 -39 -17 -31 -32 -121 -17 -99 8 13 10 13 10 -1 0
-21 -26 -43 -40 -34 -8 5 -7 11 1 21 8 10 9 18 2 25 -7 7 -14 -1 -23 -23 -8
-18 -16 -35 -19 -38 -12 -10 -31 -50 -31 -64 0 -17 -27 -46 -42 -46 -27 0 28
162 104 309 63 122 194 308 207 295 3 -2 0 -9 -6 -15z m1685 -788 c9 -5 39
-17 67 -27 57 -20 127 -86 164 -155 62 -114 100 -201 121 -274 31 -113 50
-165 75 -205 12 -19 39 -66 60 -105 21 -38 41 -72 44 -75 7 -6 19 -25 61 -97
17 -28 38 -57 45 -63 8 -7 15 -20 15 -30 0 -22 39 -72 51 -65 5 4 9 1 9 -4 0
-6 -5 -11 -12 -11 -6 0 -2 -10 10 -23 12 -13 22 -29 22 -37 0 -18 80 -142 102
-158 10 -7 16 -17 13 -22 -10 -15 39 -57 72 -62 26 -4 36 0 48 18 18 27 13 56
-25 174 -25 75 -58 228 -59 270 0 36 -12 132 -25 210 -21 119 -39 300 -32 308
8 8 25 -15 30 -43 2 -11 9 -72 15 -135 19 -216 40 -306 101 -435 21 -44 44
-96 51 -115 7 -19 21 -47 31 -62 19 -27 20 -27 49 -12 17 8 33 22 36 30 3 8
12 13 20 10 8 -3 12 -2 9 3 -3 5 0 14 7 20 25 20 39 85 35 159 -1 40 0 72 3
72 3 0 21 -21 40 -46 l34 -46 36 79 c42 90 72 196 88 303 27 188 31 223 32
282 0 44 3 57 9 43 14 -33 11 -184 -6 -295 -58 -393 -228 -720 -498 -960 l-58
-52 -67 7 c-74 8 -98 20 -57 31 22 5 26 11 26 43 0 28 -9 47 -35 78 -19 23
-35 46 -35 53 0 6 -4 9 -9 5 -6 -3 -14 3 -20 12 -9 16 -11 16 -24 3 -16 -16
-37 -113 -37 -167 0 -27 4 -33 22 -33 14 0 18 -4 13 -9 -13 -12 -1001 -27
-1007 -15 -2 5 -3 128 0 275 l4 265 59 2 c119 3 227 59 262 136 18 38 32 156
19 156 -5 0 -12 9 -15 20 -3 12 0 20 8 20 17 0 65 -103 65 -140 0 -41 15 -46
65 -20 35 18 48 33 70 81 14 32 30 61 34 64 18 10 29 134 26 295 -2 157 -3
168 -29 223 -31 64 -140 183 -196 213 -35 19 -67 44 -56 44 4 0 14 -4 24 -9z"/>
<path d="M3451 2500 c-5 -16 -15 -30 -20 -30 -6 0 -11 -10 -11 -23 0 -13 -8
-41 -19 -63 -10 -21 -24 -63 -32 -91 -7 -29 -16 -53 -20 -53 -3 0 -9 -13 -12
-30 -4 -16 -13 -30 -21 -30 -7 0 -17 -7 -20 -16 -3 -8 -11 -12 -16 -9 -7 4 -9
-2 -5 -18 5 -18 1 -29 -12 -38 -10 -8 -18 -21 -18 -29 0 -8 -10 -19 -22 -25
-29 -12 -30 -35 -3 -35 12 0 33 -6 48 -14 39 -19 92 -28 92 -15 0 12 51 3 60
-10 4 -7 40 -22 60 -26 31 -6 51 -18 40 -25 -9 -5 -10 -27 -5 -81 7 -64 11
-77 35 -96 39 -31 53 -35 72 -21 13 10 15 24 11 66 -4 34 -10 52 -19 52 -9 0
-13 12 -12 36 1 20 -4 39 -12 44 -10 6 -11 25 -3 92 6 53 6 85 0 89 -5 4 -8
21 -5 38 2 17 1 31 -3 31 -9 0 -18 59 -24 155 -7 130 -28 211 -47 183 -6 -10
-11 -9 -22 5 -18 23 -22 22 -35 -13z"/>
</g>
</svg>
